{
	"asset":{
		"generator":"Khronos glTF Blender I/O v3.6.28",
		"version":"2.0"
	},
	"scene":0,
	"scenes":[
		{
			"name":"Scene",
			"nodes":[
				0,
				1
			]
		}
	],
	"nodes":[
		{
			"mesh":0,
			"name":"Cone",
			"rotation":[
				0.5000001192092896,
				-0.5,
				0.4999999701976776,
				0.5000001192092896
			],
			"scale":[
				1.613857626914978,
				1,
				1
			],
			"translation":[
				-2.0020651817321777,
				0.005561294034123421,
				0.005561292637139559
			]
		},
		{
			"mesh":1,
			"name":"Cylinder",
			"rotation":[
				0.5000000596046448,
				-0.5,
				0.49999991059303284,
				0.5000000596046448
			],
			"scale":[
				1,
				2.132943630218506,
				0.6653541922569275
			]
		}
	],
	"materials":[
		{
			"doubleSided":true,
			"name":"Material.002",
			"pbrMetallicRoughness":{
				"baseColorFactor":[
					0.800000011920929,
					0.800000011920929,
					0.800000011920929,
					1
				],
				"metallicFactor":0,
				"roughnessFactor":0.5
			}
		},
		{
			"doubleSided":true,
			"name":"Material.001",
			"pbrMetallicRoughness":{
				"baseColorFactor":[
					0.800000011920929,
					0.800000011920929,
					0.800000011920929,
					1
				],
				"metallicFactor":0,
				"roughnessFactor":0.5
			}
		}
	],
	"meshes":[
		{
			"name":"Cone",
			"primitives":[
				{
					"attributes":{
						"POSITION":0,
						"NORMAL":1,
						"TEXCOORD_0":2
					},
					"indices":3,
					"material":0
				}
			]
		},
		{
			"name":"Cylinder",
			"primitives":[
				{
					"attributes":{
						"POSITION":4,
						"NORMAL":5,
						"TEXCOORD_0":6
					},
					"indices":7,
					"material":1
				}
			]
		}
	],
	"accessors":[
		{
			"bufferView":0,
			"componentType":5126,
			"count":64,
			"max":[
				0.36000001430511475,
				1,
				0.36000001430511475
			],
			"min":[
				-0.36000001430511475,
				-1,
				-0.36000001430511475
			],
			"type":"VEC3"
		},
		{
			"bufferView":1,
			"componentType":5126,
			"count":64,
			"type":"VEC3"
		},
		{
			"bufferView":2,
			"componentType":5126,
			"count":64,
			"type":"VEC2"
		},
		{
			"bufferView":3,
			"componentType":5123,
			"count":90,
			"type":"SCALAR"
		},
		{
			"bufferView":4,
			"componentType":5126,
			"count":96,
			"max":[
				0.9944387078285217,
				1,
				0.9916415810585022
			],
			"min":[
				-1.005561351776123,
				-0.9999999403953552,
				-1.008358359336853
			],
			"type":"VEC3"
		},
		{
			"bufferView":5,
			"componentType":5126,
			"count":96,
			"type":"VEC3"
		},
		{
			"bufferView":6,
			"componentType":5126,
			"count":96,
			"type":"VEC2"
		},
		{
			"bufferView":7,
			"componentType":5123,
			"count":180,
			"type":"SCALAR"
		}
	],
	"bufferViews":[
		{
			"buffer":0,
			"byteLength":768,
			"byteOffset":0,
			"target":34962
		},
		{
			"buffer":0,
			"byteLength":768,
			"byteOffset":768,
			"target":34962
		},
		{
			"buffer":0,
			"byteLength":512,
			"byteOffset":1536,
			"target":34962
		},
		{
			"buffer":0,
			"byteLength":180,
			"byteOffset":2048,
			"target":34963
		},
		{
			"buffer":0,
			"byteLength":1152,
			"byteOffset":2228,
			"target":34962
		},
		{
			"buffer":0,
			"byteLength":1152,
			"byteOffset":3380,
			"target":34962
		},
		{
			"buffer":0,
			"byteLength":768,
			"byteOffset":4532,
			"target":34962
		},
		{
			"buffer":0,
			"byteLength":360,
			"byteOffset":5300,
			"target":34963
		}
	],
	"buffers":[
		{
			"byteLength":5660,
			"uri":"arrow-873afb7685770453c2eea7e029b28a4e.bin"
		}
	]
}
