{
	"asset":{
		"generator":"Khronos glTF Blender I/O v3.6.28",
		"version":"2.0"
	},
	"scene":0,
	"scenes":[
		{
			"name":"Scene",
			"nodes":[
				0,
				1
			]
		}
	],
	"nodes":[
		{
			"mesh":0,
			"name":"Cube  2-col",
			"scale":[
				1,
				0.07396787405014038,
				1
			]
		},
		{
			"name":"BezierCurve.002",
			"rotation":[
				0,
				0.7071068286895752,
				0,
				0.7071068286895752
			]
		}
	],
	"materials":[
		{
			"doubleSided":true,
			"name":"Material",
			"pbrMetallicRoughness":{
				"baseColorFactor":[
					0,
					0,
					0,
					1
				],
				"metallicFactor":0
			}
		},
		{
			"doubleSided":true,
			"name":"Material.001",
			"pbrMetallicRoughness":{
				"baseColorFactor":[
					0.7742705941200256,
					0.7742705941200256,
					0.7742705941200256,
					1
				],
				"metallicFactor":0,
				"roughnessFactor":0.5
			}
		}
	],
	"meshes":[
		{
			"name":"Cube.001",
			"primitives":[
				{
					"attributes":{
						"POSITION":0,
						"NORMAL":1,
						"TEXCOORD_0":2,
						"TANGENT":3
					},
					"indices":4,
					"material":0
				},
				{
					"attributes":{
						"POSITION":5,
						"NORMAL":6,
						"TEXCOORD_0":7,
						"TANGENT":8
					},
					"indices":9,
					"material":1
				}
			]
		}
	],
	"accessors":[
		{
			"bufferView":0,
			"componentType":5126,
			"count":31794,
			"max":[
				456.5183410644531,
				371.426513671875,
				468.499755859375
			],
			"min":[
				-131.40769958496094,
				-1.0126408338546753,
				-155.30947875976562
			],
			"type":"VEC3"
		},
		{
			"bufferView":1,
			"componentType":5126,
			"count":31794,
			"type":"VEC3"
		},
		{
			"bufferView":2,
			"componentType":5126,
			"count":31794,
			"type":"VEC2"
		},
		{
			"bufferView":3,
			"componentType":5126,
			"count":31794,
			"type":"VEC4"
		},
		{
			"bufferView":4,
			"componentType":5123,
			"count":49140,
			"type":"SCALAR"
		},
		{
			"bufferView":5,
			"componentType":5126,
			"count":5040,
			"max":[
				455.7171936035156,
				371.426513671875,
				460.82958984375
			],
			"min":[
				-123.73759460449219,
				-1.000522494316101,
				-147.66903686523438
			],
			"type":"VEC3"
		},
		{
			"bufferView":6,
			"componentType":5126,
			"count":5040,
			"type":"VEC3"
		},
		{
			"bufferView":7,
			"componentType":5126,
			"count":5040,
			"type":"VEC2"
		},
		{
			"bufferView":8,
			"componentType":5126,
			"count":5040,
			"type":"VEC4"
		},
		{
			"bufferView":9,
			"componentType":5123,
			"count":7560,
			"type":"SCALAR"
		}
	],
	"bufferViews":[
		{
			"buffer":0,
			"byteLength":381528,
			"byteOffset":0,
			"target":34962
		},
		{
			"buffer":0,
			"byteLength":381528,
			"byteOffset":381528,
			"target":34962
		},
		{
			"buffer":0,
			"byteLength":254352,
			"byteOffset":763056,
			"target":34962
		},
		{
			"buffer":0,
			"byteLength":508704,
			"byteOffset":1017408,
			"target":34962
		},
		{
			"buffer":0,
			"byteLength":98280,
			"byteOffset":1526112,
			"target":34963
		},
		{
			"buffer":0,
			"byteLength":60480,
			"byteOffset":1624392,
			"target":34962
		},
		{
			"buffer":0,
			"byteLength":60480,
			"byteOffset":1684872,
			"target":34962
		},
		{
			"buffer":0,
			"byteLength":40320,
			"byteOffset":1745352,
			"target":34962
		},
		{
			"buffer":0,
			"byteLength":80640,
			"byteOffset":1785672,
			"target":34962
		},
		{
			"buffer":0,
			"byteLength":15120,
			"byteOffset":1866312,
			"target":34963
		}
	],
	"buffers":[
		{
			"byteLength":1881432,
			"uri":"CUTSCENE%20ROAD-785635c57815f7e48e7b944e4ec6ccbb.bin"
		}
	]
}
