{
	"asset":{
		"generator":"Khronos glTF Blender I/O v3.6.28",
		"version":"2.0"
	},
	"scene":0,
	"scenes":[
		{
			"name":"Scene",
			"nodes":[
				1,
				2,
				3
			]
		}
	],
	"nodes":[
		{
			"mesh":0,
			"name":"Cylinder.001",
			"rotation":[
				-0.7071068286895752,
				0,
				0,
				0.7071068286895752
			]
		},
		{
			"children":[
				0
			],
			"mesh":1,
			"name":"Cylinder",
			"rotation":[
				0.7071068286895752,
				0,
				0,
				0.7071068286895752
			]
		},
		{
			"name":"BezierCircle",
			"rotation":[
				0.7071067690849304,
				0,
				0,
				0.7071068286895752
			],
			"scale":[
				3.3175926208496094,
				3.3175926208496094,
				3.3175926208496094
			]
		},
		{
			"mesh":2,
			"name":"Cylinder.002"
		}
	],
	"materials":[
		{
			"doubleSided":true,
			"emissiveFactor":[
				1,
				1,
				1
			],
			"name":"minigun",
			"pbrMetallicRoughness":{}
		}
	],
	"meshes":[
		{
			"name":"Cylinder.005",
			"primitives":[
				{
					"attributes":{
						"POSITION":0,
						"NORMAL":1,
						"TEXCOORD_0":2
					},
					"indices":3,
					"material":0
				}
			]
		},
		{
			"name":"Cylinder",
			"primitives":[
				{
					"attributes":{
						"POSITION":4,
						"NORMAL":5,
						"TEXCOORD_0":6
					},
					"indices":7,
					"material":0
				}
			]
		},
		{
			"name":"Cylinder.006",
			"primitives":[
				{
					"attributes":{
						"POSITION":8,
						"NORMAL":9,
						"TEXCOORD_0":10
					},
					"indices":11,
					"material":0
				}
			]
		}
	],
	"accessors":[
		{
			"bufferView":0,
			"componentType":5126,
			"count":240,
			"max":[
				6.245372772216797,
				5.626091957092285,
				-3.018772840499878
			],
			"min":[
				-6.277909755706787,
				-6.336727142333984,
				-15.962567329406738
			],
			"type":"VEC3"
		},
		{
			"bufferView":1,
			"componentType":5126,
			"count":240,
			"type":"VEC3"
		},
		{
			"bufferView":2,
			"componentType":5126,
			"count":240,
			"type":"VEC2"
		},
		{
			"bufferView":3,
			"componentType":5123,
			"count":336,
			"type":"SCALAR"
		},
		{
			"bufferView":4,
			"componentType":5126,
			"count":775,
			"max":[
				4.585259914398193,
				8.548408508300781,
				4.787631511688232
			],
			"min":[
				-4.652065753936768,
				-14.917091369628906,
				-4.083983898162842
			],
			"type":"VEC3"
		},
		{
			"bufferView":5,
			"componentType":5126,
			"count":775,
			"type":"VEC3"
		},
		{
			"bufferView":6,
			"componentType":5126,
			"count":775,
			"type":"VEC2"
		},
		{
			"bufferView":7,
			"componentType":5123,
			"count":1095,
			"type":"SCALAR"
		},
		{
			"bufferView":8,
			"componentType":5126,
			"count":240,
			"max":[
				8.178897857666016,
				9.075427055358887,
				-14.642738342285156
			],
			"min":[
				-8.178897857666016,
				-9.07542610168457,
				-24.836570739746094
			],
			"type":"VEC3"
		},
		{
			"bufferView":9,
			"componentType":5126,
			"count":240,
			"type":"VEC3"
		},
		{
			"bufferView":10,
			"componentType":5126,
			"count":240,
			"type":"VEC2"
		},
		{
			"bufferView":11,
			"componentType":5123,
			"count":348,
			"type":"SCALAR"
		}
	],
	"bufferViews":[
		{
			"buffer":0,
			"byteLength":2880,
			"byteOffset":0,
			"target":34962
		},
		{
			"buffer":0,
			"byteLength":2880,
			"byteOffset":2880,
			"target":34962
		},
		{
			"buffer":0,
			"byteLength":1920,
			"byteOffset":5760,
			"target":34962
		},
		{
			"buffer":0,
			"byteLength":672,
			"byteOffset":7680,
			"target":34963
		},
		{
			"buffer":0,
			"byteLength":9300,
			"byteOffset":8352,
			"target":34962
		},
		{
			"buffer":0,
			"byteLength":9300,
			"byteOffset":17652,
			"target":34962
		},
		{
			"buffer":0,
			"byteLength":6200,
			"byteOffset":26952,
			"target":34962
		},
		{
			"buffer":0,
			"byteLength":2190,
			"byteOffset":33152,
			"target":34963
		},
		{
			"buffer":0,
			"byteLength":2880,
			"byteOffset":35344,
			"target":34962
		},
		{
			"buffer":0,
			"byteLength":2880,
			"byteOffset":38224,
			"target":34962
		},
		{
			"buffer":0,
			"byteLength":1920,
			"byteOffset":41104,
			"target":34962
		},
		{
			"buffer":0,
			"byteLength":696,
			"byteOffset":43024,
			"target":34963
		}
	],
	"buffers":[
		{
			"byteLength":43720,
			"uri":"Minigun-f6fc468543a9f40dc71ed8423b036343.bin"
		}
	]
}
